<svg version="1.1" viewBox="0.0 0.0 600.0 371.0" fill="none" stroke="none" stroke-linecap="square" stroke-miterlimit="10" width="600" height="371" xmlns:xlink="http://www.w3.org/1999/xlink" xmlns="http://www.w3.org/2000/svg"><path fill="#ffffff" d="M0 0L600.0 0L600.0 371.0L0 371.0L0 0Z" fill-rule="nonzero"/><path stroke="#cccccc" stroke-width="1.0" stroke-linecap="butt" d="M145.5 88.5L145.5 300.5" fill-rule="nonzero"/><path stroke="#cccccc" stroke-width="1.0" stroke-linecap="butt" d="M254.5 88.5L254.5 300.5" fill-rule="nonzero"/><path stroke="#cccccc" stroke-width="1.0" stroke-linecap="butt" d="M363.5 88.5L363.5 300.5" fill-rule="nonzero"/><path stroke="#cccccc" stroke-width="1.0" stroke-linecap="butt" d="M472.5 88.5L472.5 300.5" fill-rule="nonzero"/><path stroke="#cccccc" stroke-width="1.0" stroke-linecap="butt" d="M581.5 88.5L581.5 300.5" fill-rule="nonzero"/><path stroke="#333333" stroke-width="1.0" stroke-linecap="butt" d="M91.5 300.5L581.5 300.5" fill-rule="nonzero"/><path stroke="#cccccc" stroke-width="1.0" stroke-linecap="butt" d="M91.5 258.5L581.5 258.5" fill-rule="nonzero"/><path stroke="#cccccc" stroke-width="1.0" stroke-linecap="butt" d="M91.5 215.5L581.5 215.5" fill-rule="nonzero"/><path stroke="#cccccc" stroke-width="1.0" stroke-linecap="butt" d="M91.5 173.5L581.5 173.5" fill-rule="nonzero"/><path stroke="#cccccc" stroke-width="1.0" stroke-linecap="butt" d="M91.5 130.5L581.5 130.5" fill-rule="nonzero"/><path stroke="#cccccc" stroke-width="1.0" stroke-linecap="butt" d="M91.5 88.5L581.5 88.5" fill-rule="nonzero"/><clipPath id="id_0"><path d="M91.55 88.28333L581.45 88.28333L581.45 300.45L91.55 300.45L91.55 88.28333Z" clip-rule="nonzero"/></clipPath><path stroke="#4285f4" stroke-width="2.0" stroke-linecap="butt" clip-path="url(#id_0)" d="M91.55 276.21277L145.98334 242.3221L200.41667 235.51767L254.85 242.54037L309.28333 233.14886L363.71667 244.32123L418.15 240.57928L472.58334 215.62576L527.01666 229.07356L581.45 238.57133" fill-rule="nonzero"/><path stroke="#ea4335" stroke-width="2.0" stroke-linecap="butt" clip-path="url(#id_0)" d="M91.55 176.08961L145.98334 199.77777L200.41667 206.51906L254.85 201.30672L309.28333 193.7665L363.71667 195.8055L418.15 193.0918L472.58334 188.7833L527.01666 193.3627L581.45 183.95488" fill-rule="nonzero"/><path stroke="#fbbc04" stroke-width="2.0" stroke-linecap="butt" clip-path="url(#id_0)" d="M91.55 126.18581L145.98334 144.87413L200.41667 146.42702L254.85 179.8151L309.28333 144.01375L363.71667 142.41147L418.15 179.7292L472.58334 138.336L527.01666 172.54236L581.45 150.24347" fill-rule="nonzero"/><path fill="#000000" fill-opacity="0.0" clip-path="url(#id_0)" d="M94.55 276.21277C94.55 277.8696 93.206856 279.21277 91.55 279.21277C89.89314 279.21277 88.55 277.8696 88.55 276.21277C88.55 274.5559 89.89314 273.21277 91.55 273.21277C93.206856 273.21277 94.55 274.5559 94.55 276.21277Z" fill-rule="nonzero"/><path fill="#000000" fill-opacity="0.0" clip-path="url(#id_0)" d="M148.98334 242.3221C148.98334 243.97896 147.64018 245.3221 145.98334 245.3221C144.32648 245.3221 142.98334 243.97896 142.98334 242.3221C142.98334 240.66525 144.32648 239.3221 145.98334 239.3221C147.64018 239.3221 148.98334 240.66525 148.98334 242.3221Z" fill-rule="nonzero"/><path fill="#000000" fill-opacity="0.0" clip-path="url(#id_0)" d="M203.41667 235.51767C203.41667 237.17451 202.07352 238.51767 200.41667 238.51767C198.75981 238.51767 197.41667 237.17451 197.41667 235.51767C197.41667 233.86081 198.75981 232.51767 200.41667 232.51767C202.07352 232.51767 203.41667 233.86081 203.41667 235.51767Z" fill-rule="nonzero"/><path fill="#000000" fill-opacity="0.0" clip-path="url(#id_0)" d="M257.85 242.54037C257.85 244.19724 256.50687 245.54037 254.85 245.54037C253.19315 245.54037 251.85 244.19724 251.85 242.54037C251.85 240.88353 253.19315 239.54037 254.85 239.54037C256.50687 239.54037 257.85 240.88353 257.85 242.54037Z" fill-rule="nonzero"/><path fill="#000000" fill-opacity="0.0" clip-path="url(#id_0)" d="M312.28333 233.14886C312.28333 234.80573 310.9402 236.14886 309.28333 236.14886C307.62646 236.14886 306.28333 234.80573 306.28333 233.14886C306.28333 231.492 307.62646 230.14886 309.28333 230.14886C310.9402 230.14886 312.28333 231.492 312.28333 233.14886Z" fill-rule="nonzero"/><path fill="#000000" fill-opacity="0.0" clip-path="url(#id_0)" d="M366.71667 244.32123C366.71667 245.97807 365.37354 247.32123 363.71667 247.32123C362.0598 247.32123 360.71667 245.97807 360.71667 244.32123C360.71667 242.66437 362.0598 241.32123 363.71667 241.32123C365.37354 241.32123 366.71667 242.66437 366.71667 244.32123Z" fill-rule="nonzero"/><path fill="#000000" fill-opacity="0.0" clip-path="url(#id_0)" d="M421.15 240.57928C421.15 242.23613 419.80685 243.57928 418.15 243.57928C416.49313 243.57928 415.15 242.23613 415.15 240.57928C415.15 238.92242 416.49313 237.57928 418.15 237.57928C419.80685 237.57928 421.15 238.92242 421.15 240.57928Z" fill-rule="nonzero"/><path fill="#000000" fill-opacity="0.0" clip-path="url(#id_0)" d="M475.58334 215.62576C475.58334 217.28262 474.24017 218.62576 472.58334 218.62576C470.92648 218.62576 469.58334 217.28262 469.58334 215.62576C469.58334 213.96892 470.92648 212.62576 472.58334 212.62576C474.24017 212.62576 475.58334 213.96892 475.58334 215.62576Z" fill-rule="nonzero"/><path fill="#000000" fill-opacity="0.0" clip-path="url(#id_0)" d="M530.01666 229.07356C530.01666 230.73042 528.6735 232.07356 527.01666 232.07356C525.3598 232.07356 524.01666 230.73042 524.01666 229.07356C524.01666 227.41672 525.3598 226.07356 527.01666 226.07356C528.6735 226.07356 530.01666 227.41672 530.01666 229.07356Z" fill-rule="nonzero"/><path fill="#000000" fill-opacity="0.0" clip-path="url(#id_0)" d="M584.45 238.57133C584.45 240.2282 583.1069 241.57133 581.45 241.57133C579.79315 241.57133 578.45 240.2282 578.45 238.57133C578.45 236.91449 579.79315 235.57133 581.45 235.57133C583.1069 235.57133 584.45 236.91449 584.45 238.57133Z" fill-rule="nonzero"/><path fill="#000000" fill-opacity="0.0" clip-path="url(#id_0)" d="M94.55 176.08961C94.55 177.74646 93.206856 179.08961 91.55 179.08961C89.89314 179.08961 88.55 177.74646 88.55 176.08961C88.55 174.43275 89.89314 173.08961 91.55 173.08961C93.206856 173.08961 94.55 174.43275 94.55 176.08961Z" fill-rule="nonzero"/><path fill="#000000" fill-opacity="0.0" clip-path="url(#id_0)" d="M148.98334 199.77777C148.98334 201.43462 147.64018 202.77777 145.98334 202.77777C144.32648 202.77777 142.98334 201.43462 142.98334 199.77777C142.98334 198.12091 144.32648 196.77777 145.98334 196.77777C147.64018 196.77777 148.98334 198.12091 148.98334 199.77777Z" fill-rule="nonzero"/><path fill="#000000" fill-opacity="0.0" clip-path="url(#id_0)" d="M203.41667 206.51906C203.41667 208.17592 202.07352 209.51906 200.41667 209.51906C198.75981 209.51906 197.41667 208.17592 197.41667 206.51906C197.41667 204.86221 198.75981 203.51906 200.41667 203.51906C202.07352 203.51906 203.41667 204.86221 203.41667 206.51906Z" fill-rule="nonzero"/><path fill="#000000" fill-opacity="0.0" clip-path="url(#id_0)" d="M257.85 201.30672C257.85 202.96358 256.50687 204.30672 254.85 204.30672C253.19315 204.30672 251.85 202.96358 251.85 201.30672C251.85 199.64987 253.19315 198.30672 254.85 198.30672C256.50687 198.30672 257.85 199.64987 257.85 201.30672Z" fill-rule="nonzero"/><path fill="#000000" fill-opacity="0.0" clip-path="url(#id_0)" d="M312.28333 193.7665C312.28333 195.42334 310.9402 196.7665 309.28333 196.7665C307.62646 196.7665 306.28333 195.42334 306.28333 193.7665C306.28333 192.10963 307.62646 190.7665 309.28333 190.7665C310.9402 190.7665 312.28333 192.10963 312.28333 193.7665Z" fill-rule="nonzero"/><path fill="#000000" fill-opacity="0.0" clip-path="url(#id_0)" d="M366.71667 195.8055C366.71667 197.46236 365.37354 198.8055 363.71667 198.8055C362.0598 198.8055 360.71667 197.46236 360.71667 195.8055C360.71667 194.14864 362.0598 192.8055 363.71667 192.8055C365.37354 192.8055 366.71667 194.14864 366.71667 195.8055Z" fill-rule="nonzero"/><path fill="#000000" fill-opacity="0.0" clip-path="url(#id_0)" d="M421.15 193.0918C421.15 194.74866 419.80685 196.0918 418.15 196.0918C416.49313 196.0918 415.15 194.74866 415.15 193.0918C415.15 191.43495 416.49313 190.0918 418.15 190.0918C419.80685 190.0918 421.15 191.43495 421.15 193.0918Z" fill-rule="nonzero"/><path fill="#000000" fill-opacity="0.0" clip-path="url(#id_0)" d="M475.58334 188.7833C475.58334 190.44014 474.24017 191.7833 472.58334 191.7833C470.92648 191.7833 469.58334 190.44014 469.58334 188.7833C469.58334 187.12643 470.92648 185.7833 472.58334 185.7833C474.24017 185.7833 475.58334 187.12643 475.58334 188.7833Z" fill-rule="nonzero"/><path fill="#000000" fill-opacity="0.0" clip-path="url(#id_0)" d="M530.01666 193.3627C530.01666 195.01955 528.6735 196.3627 527.01666 196.3627C525.3598 196.3627 524.01666 195.01955 524.01666 193.3627C524.01666 191.70584 525.3598 190.3627 527.01666 190.3627C528.6735 190.3627 530.01666 191.70584 530.01666 193.3627Z" fill-rule="nonzero"/><path fill="#000000" fill-opacity="0.0" clip-path="url(#id_0)" d="M584.45 183.95488C584.45 185.61174 583.1069 186.95488 581.45 186.95488C579.79315 186.95488 578.45 185.61174 578.45 183.95488C578.45 182.29803 579.79315 180.95488 581.45 180.95488C583.1069 180.95488 584.45 182.29803 584.45 183.95488Z" fill-rule="nonzero"/><path fill="#000000" fill-opacity="0.0" clip-path="url(#id_0)" d="M94.55 126.18581C94.55 127.84266 93.206856 129.1858 91.55 129.1858C89.89314 129.1858 88.55 127.84266 88.55 126.18581C88.55 124.52895 89.89314 123.18581 91.55 123.18581C93.206856 123.18581 94.55 124.52895 94.55 126.18581Z" fill-rule="nonzero"/><path fill="#000000" fill-opacity="0.0" clip-path="url(#id_0)" d="M148.98334 144.87413C148.98334 146.53098 147.64018 147.87413 145.98334 147.87413C144.32648 147.87413 142.98334 146.53098 142.98334 144.87413C142.98334 143.21727 144.32648 141.87413 145.98334 141.87413C147.64018 141.87413 148.98334 143.21727 148.98334 144.87413Z" fill-rule="nonzero"/><path fill="#000000" fill-opacity="0.0" clip-path="url(#id_0)" d="M203.41667 146.42702C203.41667 148.08386 202.07352 149.42702 200.41667 149.42702C198.75981 149.42702 197.41667 148.08386 197.41667 146.42702C197.41667 144.77016 198.75981 143.42702 200.41667 143.42702C202.07352 143.42702 203.41667 144.77016 203.41667 146.42702Z" fill-rule="nonzero"/><path fill="#000000" fill-opacity="0.0" clip-path="url(#id_0)" d="M257.85 179.8151C257.85 181.47194 256.50687 182.8151 254.85 182.8151C253.19315 182.8151 251.85 181.47194 251.85 179.8151C251.85 178.15823 253.19315 176.8151 254.85 176.8151C256.50687 176.8151 257.85 178.15823 257.85 179.8151Z" fill-rule="nonzero"/><path fill="#000000" fill-opacity="0.0" clip-path="url(#id_0)" d="M312.28333 144.01375C312.28333 145.6706 310.9402 147.01375 309.28333 147.01375C307.62646 147.01375 306.28333 145.6706 306.28333 144.01375C306.28333 142.35689 307.62646 141.01375 309.28333 141.01375C310.9402 141.01375 312.28333 142.35689 312.28333 144.01375Z" fill-rule="nonzero"/><path fill="#000000" fill-opacity="0.0" clip-path="url(#id_0)" d="M366.71667 142.41147C366.71667 144.06831 365.37354 145.41147 363.71667 145.41147C362.0598 145.41147 360.71667 144.06831 360.71667 142.41147C360.71667 140.75461 362.0598 139.41147 363.71667 139.41147C365.37354 139.41147 366.71667 140.75461 366.71667 142.41147Z" fill-rule="nonzero"/><path fill="#000000" fill-opacity="0.0" clip-path="url(#id_0)" d="M421.15 179.7292C421.15 181.38606 419.80685 182.7292 418.15 182.7292C416.49313 182.7292 415.15 181.38606 415.15 179.7292C415.15 178.07234 416.49313 176.7292 418.15 176.7292C419.80685 176.7292 421.15 178.07234 421.15 179.7292Z" fill-rule="nonzero"/><path fill="#000000" fill-opacity="0.0" clip-path="url(#id_0)" d="M475.58334 138.336C475.58334 139.99284 474.24017 141.336 472.58334 141.336C470.92648 141.336 469.58334 139.99284 469.58334 138.336C469.58334 136.67914 470.92648 135.336 472.58334 135.336C474.24017 135.336 475.58334 136.67914 475.58334 138.336Z" fill-rule="nonzero"/><path fill="#000000" fill-opacity="0.0" clip-path="url(#id_0)" d="M530.01666 172.54236C530.01666 174.1992 528.6735 175.54236 527.01666 175.54236C525.3598 175.54236 524.01666 174.1992 524.01666 172.54236C524.01666 170.8855 525.3598 169.54236 527.01666 169.54236C528.6735 169.54236 530.01666 170.8855 530.01666 172.54236Z" fill-rule="nonzero"/><path fill="#000000" fill-opacity="0.0" clip-path="url(#id_0)" d="M584.45 150.24347C584.45 151.90033 583.1069 153.24347 581.45 153.24347C579.79315 153.24347 578.45 151.90033 578.45 150.24347C578.45 148.58661 579.79315 147.24347 581.45 147.24347C583.1069 147.24347 584.45 148.58661 584.45 150.24347Z" fill-rule="nonzero"/><path fill="#000000" d="M328.28125 349.45L328.28125 343.23126L329.23438 343.23126L329.23438 344.16876Q329.59375 343.5125 329.89062 343.3094Q330.20312 343.09064 330.57812 343.09064Q331.10938 343.09064 331.65625 343.41876L331.29688 344.40314Q330.90625 344.16876 330.53125 344.16876Q330.17188 344.16876 329.89062 344.3875Q329.625 344.59064 329.51562 344.96564Q329.32812 345.52814 329.32812 346.1844L329.32812 349.45L328.28125 349.45ZM336.375 349.45L336.375 348.52814Q335.64062 349.59064 334.39062 349.59064Q333.84375 349.59064 333.35938 349.3875Q332.89062 349.16876 332.65625 348.85626Q332.42188 348.52814 332.32812 348.0594Q332.26562 347.7625 332.26562 347.075L332.26562 343.23126L333.32812 343.23126L333.32812 346.6844Q333.32812 347.4969 333.39062 347.79376Q333.48438 348.2 333.79688 348.45Q334.125 348.6844 334.60938 348.6844Q335.07812 348.6844 335.48438 348.45Q335.90625 348.2 336.07812 347.77814Q336.26562 347.35626 336.26562 346.5594L336.26562 343.23126L337.3125 343.23126L337.3125 349.45L336.375 349.45ZM339.29688 349.45L339.29688 343.23126L340.23438 343.23126L340.23438 344.10626Q340.92188 343.09064 342.21875 343.09064Q342.78125 343.09064 343.25 343.29376Q343.73438 343.4969 343.96875 343.825Q344.20312 344.15314 344.29688 344.59064Q344.34375 344.8875 344.34375 345.6219L344.34375 349.45L343.29688 349.45L343.29688 345.66876Q343.29688 345.0125 343.17188 344.7Q343.04688 344.3875 342.73438 344.2Q342.42188 343.9969 342.0 343.9969Q341.32812 343.9969 340.82812 344.4344Q340.34375 344.85626 340.34375 346.04376L340.34375 349.45L339.29688 349.45Z" fill-rule="nonzero"/><path fill="#000000" d="M29.550013 250.49167L20.956263 250.49167L20.956263 247.2573Q20.956263 246.27292 21.221888 245.67917Q21.487513 245.08542 22.034388 244.7573Q22.565638 244.41354 23.159388 244.41354Q23.706263 244.41354 24.190638 244.71042Q24.675013 245.0073 24.971888 245.61667Q25.206263 244.83542 25.768763 244.42917Q26.315638 244.0073 27.065638 244.0073Q27.659388 244.0073 28.190638 244.2573Q28.706263 244.5073 28.987513 244.8823Q29.268763 245.2573 29.409388 245.83542Q29.550013 246.39792 29.550013 247.21042L29.550013 250.49167ZM24.565638 249.35104L24.565638 247.49167Q24.565638 246.74167 24.471888 246.41354Q24.346888 245.97604 24.050013 245.7573Q23.737513 245.53854 23.284388 245.53854Q22.862513 245.53854 22.534388 245.74167Q22.206263 245.9448 22.096888 246.33542Q21.971888 246.71042 21.971888 247.6323L21.971888 249.35104L24.565638 249.35104ZM28.534388 249.35104L28.534388 247.21042Q28.534388 246.66354 28.487513 246.4448Q28.425013 246.03854 28.268763 245.78854Q28.096888 245.52292 27.784388 245.35104Q27.471888 245.17917 27.065638 245.17917Q26.581263 245.17917 26.221888 245.42917Q25.862513 245.66354 25.721888 246.10104Q25.581263 246.53854 25.581263 247.36667L25.581263 249.35104L28.534388 249.35104ZM28.784388 238.5073Q29.284388 239.10104 29.487513 239.64792Q29.690638 240.17917 29.690638 240.80417Q29.690638 241.83542 29.190638 242.3823Q28.690638 242.92917 27.909388 242.92917Q27.456263 242.92917 27.081263 242.72604Q26.690638 242.52292 26.471888 242.17917Q26.237513 241.83542 26.128138 241.41354Q26.034388 241.11667 25.956263 240.47604Q25.815638 239.21042 25.596888 238.60104Q25.378138 238.60104 25.331263 238.60104Q24.675013 238.60104 24.409388 238.89792Q24.065638 239.30417 24.065638 240.10104Q24.065638 240.83542 24.331263 241.1948Q24.581263 241.55417 25.237513 241.72604L25.096888 242.7573Q24.440638 242.61667 24.034388 242.28854Q23.628138 241.96042 23.409388 241.35104Q23.190638 240.74167 23.190638 239.9448Q23.190638 239.14792 23.378138 238.64792Q23.565638 238.14792 23.846888 237.91354Q24.128138 237.67917 24.565638 237.58542Q24.831263 237.53854 25.534388 237.53854L26.940638 237.53854Q28.409388 237.53854 28.800013 237.47604Q29.190638 237.39792 29.550013 237.1948L29.550013 238.30417Q29.221888 238.46042 28.784388 238.5073ZM26.425013 238.60104Q26.659388 239.17917 26.831263 240.3198Q26.925013 240.97604 27.050013 241.24167Q27.159388 241.5073 27.378138 241.66354Q27.596888 241.80417 27.878138 241.80417Q28.300013 241.80417 28.581263 241.49167Q28.862513 241.16354 28.862513 240.55417Q28.862513 239.9448 28.596888 239.47604Q28.331263 238.99167 27.862513 238.77292Q27.503138 238.60104 26.815638 238.60104L26.425013 238.60104ZM29.550013 235.5698L23.331263 235.5698L23.331263 234.6323L24.206263 234.6323Q23.190638 233.9448 23.190638 232.64792Q23.190638 232.08542 23.393763 231.61667Q23.596888 231.1323 23.925013 230.89792Q24.253138 230.66354 24.690638 230.5698Q24.987513 230.52292 25.721888 230.52292L29.550013 230.52292L29.550013 231.5698L25.768763 231.5698Q25.112513 231.5698 24.800013 231.6948Q24.487513 231.8198 24.300013 232.1323Q24.096888 232.4448 24.096888 232.86667Q24.096888 233.53854 24.534388 234.03854Q24.956263 234.52292 26.143763 234.52292L29.550013 234.52292L29.550013 235.5698ZM29.550013 224.53854L28.768763 224.53854Q29.690638 225.1323 29.690638 226.27292Q29.690638 227.02292 29.284388 227.64792Q28.862513 228.27292 28.128138 228.61667Q27.393763 228.96042 26.440638 228.96042Q25.518763 228.96042 24.753138 228.64792Q23.987513 228.33542 23.596888 227.71042Q23.190638 227.08542 23.190638 226.3198Q23.190638 225.7573 23.425013 225.3198Q23.659388 224.8823 24.034388 224.60104L20.956263 224.60104L20.956263 223.55417L29.550013 223.55417L29.550013 224.53854ZM26.440638 227.86667Q27.643763 227.86667 28.237513 227.36667Q28.815638 226.86667 28.815638 226.17917Q28.815638 225.49167 28.253138 225.0073Q27.690638 224.52292 26.534388 224.52292Q25.253138 224.52292 24.659388 225.02292Q24.065638 225.5073 24.065638 226.22604Q24.065638 226.92917 24.643763 227.39792Q25.206263 227.86667 26.440638 227.86667ZM29.550013 220.42917L23.331263 222.33542L23.331263 221.24167L26.925013 220.2573L28.253138 219.8823Q28.159388 219.85104 26.971888 219.55417L23.331263 218.5698L23.331263 217.49167L26.940638 216.55417L28.128138 216.24167L26.925013 215.8823L23.331263 214.8198L23.331263 213.78854L29.550013 215.74167L29.550013 216.83542L25.815638 217.8198L24.768763 218.0698L29.550013 219.3198L29.550013 220.42917ZM22.175013 212.5698L20.956263 212.5698L20.956263 211.5073L22.175013 211.5073L22.175013 212.5698ZM29.550013 212.5698L23.331263 212.5698L23.331263 211.5073L29.550013 211.5073L29.550013 212.5698ZM29.550013 205.53854L28.768763 205.53854Q29.690638 206.1323 29.690638 207.27292Q29.690638 208.02292 29.284388 208.64792Q28.862513 209.27292 28.128138 209.61667Q27.393763 209.96042 26.440638 209.96042Q25.518763 209.96042 24.753138 209.64792Q23.987513 209.33542 23.596888 208.71042Q23.190638 208.08542 23.190638 207.3198Q23.190638 206.7573 23.425013 206.3198Q23.659388 205.8823 24.034388 205.60104L20.956263 205.60104L20.956263 204.55417L29.550013 204.55417L29.550013 205.53854ZM26.440638 208.86667Q27.643763 208.86667 28.237513 208.36667Q28.815638 207.86667 28.815638 207.17917Q28.815638 206.49167 28.253138 206.0073Q27.690638 205.52292 26.534388 205.52292Q25.253138 205.52292 24.659388 206.02292Q24.065638 206.5073 24.065638 207.22604Q24.065638 207.92917 24.643763 208.39792Q25.206263 208.86667 26.440638 208.86667ZM28.612513 200.27292L29.534388 200.11667Q29.628138 200.5698 29.628138 200.91354Q29.628138 201.49167 29.456263 201.80417Q29.268763 202.11667 28.971888 202.2573Q28.675013 202.3823 27.721888 202.3823L24.143763 202.3823L24.143763 203.14792L23.331263 203.14792L23.331263 202.3823L21.784388 202.3823L21.159388 201.33542L23.331263 201.33542L23.331263 200.27292L24.143763 200.27292L24.143763 201.33542L27.784388 201.33542Q28.237513 201.33542 28.362513 201.28854Q28.487513 201.22604 28.565638 201.10104Q28.643763 200.97604 28.643763 200.74167Q28.643763 200.55417 28.612513 200.27292ZM29.550013 199.5698L20.956263 199.5698L20.956263 198.52292L24.034388 198.52292Q23.190638 197.78854 23.190638 196.66354Q23.190638 195.96042 23.471888 195.46042Q23.737513 194.9448 24.221888 194.72604Q24.690638 194.5073 25.612513 194.5073L29.550013 194.5073L29.550013 195.55417L25.612513 195.55417Q24.815638 195.55417 24.456263 195.89792Q24.096888 196.24167 24.096888 196.86667Q24.096888 197.33542 24.346888 197.7573Q24.581263 198.16354 25.003138 198.35104Q25.409388 198.52292 26.143763 198.52292L29.550013 198.52292L29.550013 199.5698ZM32.08126 187.55417Q30.971888 188.42917 29.503138 189.03854Q28.018763 189.6323 26.440638 189.6323Q25.050013 189.6323 23.768763 189.1948Q22.284388 188.66354 20.815638 187.55417L20.815638 186.80417Q22.034388 187.5073 22.550013 187.74167Q23.362513 188.10104 24.237513 188.30417Q25.331263 188.55417 26.440638 188.55417Q29.268763 188.55417 32.08126 186.80417L32.08126 187.55417ZM29.550013 185.5698L23.331263 185.5698L23.331263 184.6323L24.206263 184.6323Q23.737513 184.33542 23.471888 183.85104Q23.190638 183.36667 23.190638 182.74167Q23.190638 182.05417 23.471888 181.61667Q23.753138 181.16354 24.268763 180.99167Q23.190638 180.24167 23.190638 179.0698Q23.190638 178.1323 23.706263 177.64792Q24.206263 177.14792 25.284388 177.14792L29.550013 177.14792L29.550013 178.1948L25.628138 178.1948Q25.003138 178.1948 24.721888 178.30417Q24.440638 178.39792 24.268763 178.66354Q24.096888 178.92917 24.096888 179.30417Q24.096888 179.96042 24.534388 180.39792Q24.971888 180.8198 25.940638 180.8198L29.550013 180.8198L29.550013 181.8823L25.503138 181.8823Q24.800013 181.8823 24.456263 182.14792Q24.096888 182.39792 24.096888 182.97604Q24.096888 183.42917 24.331263 183.80417Q24.565638 184.17917 25.018763 184.35104Q25.471888 184.52292 26.315638 184.52292L29.550013 184.52292L29.550013 185.5698ZM29.550013 173.60104L29.550013 174.58542L20.956263 174.58542L20.956263 173.52292L24.018763 173.52292Q23.190638 172.85104 23.190638 171.8198Q23.190638 171.24167 23.425013 170.74167Q23.643763 170.22604 24.065638 169.89792Q24.487513 169.55417 25.081263 169.36667Q25.675013 169.17917 26.346888 169.17917Q27.940638 169.17917 28.815638 169.97604Q29.690638 170.77292 29.690638 171.86667Q29.690638 172.97604 28.768763 173.60104L29.550013 173.60104ZM26.393763 173.61667Q27.503138 173.61667 28.003138 173.30417Q28.815638 172.80417 28.815638 171.96042Q28.815638 171.27292 28.221888 170.77292Q27.628138 170.2573 26.425013 170.2573Q25.206263 170.2573 24.628138 170.74167Q24.050013 171.22604 24.050013 171.91354Q24.050013 172.60104 24.659388 173.11667Q25.253138 173.61667 26.393763 173.61667ZM31.940638 167.5698L23.331263 167.5698L23.331263 166.61667L24.128138 166.61667Q23.659388 166.27292 23.425013 165.85104Q23.190638 165.41354 23.190638 164.80417Q23.190638 164.0073 23.596888 163.39792Q24.003138 162.78854 24.753138 162.49167Q25.503138 162.17917 26.393763 162.17917Q27.346888 162.17917 28.112513 162.52292Q28.878138 162.85104 29.284388 163.5073Q29.690638 164.16354 29.690638 164.8823Q29.690638 165.41354 29.471888 165.83542Q29.237513 166.2573 28.909388 166.52292L31.940638 166.52292L31.940638 167.5698ZM26.471888 166.61667Q27.675013 166.61667 28.253138 166.1323Q28.815638 165.64792 28.815638 164.96042Q28.815638 164.2573 28.221888 163.7573Q27.628138 163.2573 26.378138 163.2573Q25.190638 163.2573 24.612513 163.74167Q24.018763 164.22604 24.018763 164.91354Q24.018763 165.58542 24.643763 166.10104Q25.268763 166.61667 26.471888 166.61667ZM27.690638 160.99167L27.534388 159.96042Q28.159388 159.86667 28.487513 159.47604Q28.815638 159.0698 28.815638 158.33542Q28.815638 157.61667 28.534388 157.27292Q28.237513 156.91354 27.831263 156.91354Q27.471888 156.91354 27.268763 157.22604Q27.128138 157.4448 26.909388 158.30417Q26.612513 159.46042 26.409388 159.91354Q26.190638 160.35104 25.815638 160.58542Q25.440638 160.8198 24.971888 160.8198Q24.565638 160.8198 24.206263 160.6323Q23.846888 160.4448 23.612513 160.11667Q23.440638 159.86667 23.315638 159.4448Q23.190638 159.02292 23.190638 158.52292Q23.190638 157.80417 23.409388 157.2573Q23.612513 156.6948 23.971888 156.42917Q24.331263 156.16354 24.925013 156.0698L25.065638 157.10104Q24.596888 157.16354 24.331263 157.5073Q24.050013 157.83542 24.050013 158.46042Q24.050013 159.17917 24.300013 159.49167Q24.534388 159.80417 24.862513 159.80417Q25.065638 159.80417 25.221888 159.67917Q25.393763 159.53854 25.503138 159.27292Q25.565638 159.11667 25.768763 158.33542Q26.081263 157.21042 26.268763 156.77292Q26.456263 156.33542 26.815638 156.08542Q27.175013 155.83542 27.721888 155.83542Q28.253138 155.83542 28.721888 156.14792Q29.175013 156.4448 29.440638 157.02292Q29.690638 157.60104 29.690638 158.33542Q29.690638 159.55417 29.190638 160.1948Q28.675013 160.8198 27.690638 160.99167ZM32.08126 152.8823L32.08126 153.6323Q29.268763 151.8823 26.440638 151.8823Q25.346888 151.8823 24.253138 152.1323Q23.378138 152.33542 22.565638 152.6948Q22.050013 152.92917 20.815638 153.6323L20.815638 152.8823Q22.284388 151.78854 23.768763 151.2573Q25.050013 150.80417 26.440638 150.80417Q28.018763 150.80417 29.503138 151.41354Q30.971888 152.02292 32.08126 152.8823Z" fill-rule="nonzero"/><path fill="#000000" d="M79.05 300.21564Q79.05 298.6844 79.3625 297.7625Q79.675 296.825 80.28438 296.325Q80.90938 295.825 81.84688 295.825Q82.53438 295.825 83.05 296.10626Q83.58125 296.3875 83.925 296.91876Q84.26875 297.4344 84.45625 298.1844Q84.64375 298.9344 84.64375 300.21564Q84.64375 301.73126 84.33125 302.65314Q84.03438 303.575 83.40938 304.09064Q82.8 304.59064 81.84688 304.59064Q80.6125 304.59064 79.89375 303.7Q79.05 302.6375 79.05 300.21564ZM80.12813 300.21564Q80.12813 302.325 80.62813 303.02814Q81.12813 303.73126 81.84688 303.73126Q82.58125 303.73126 83.06563 303.02814Q83.56563 302.325 83.56563 300.21564Q83.56563 298.09064 83.06563 297.40314Q82.58125 296.7 81.83125 296.7Q81.1125 296.7 80.675 297.3094Q80.12813 298.09064 80.12813 300.21564Z" fill-rule="nonzero"/><path fill="#000000" d="M63.596874 261.00104L63.596874 262.01666L57.909374 262.01666Q57.909374 261.64166 58.034374 261.2823Q58.253124 260.70416 58.721874 260.14166Q59.20625 259.57916 60.1125 258.8448Q61.51875 257.68854 62.003124 257.01666Q62.503124 256.3448 62.503124 255.75104Q62.503124 255.12604 62.05 254.70416Q61.596874 254.26666 60.878124 254.26666Q60.1125 254.26666 59.659374 254.71979Q59.20625 255.17291 59.190624 255.98541L58.1125 255.87604Q58.221874 254.65729 58.940624 254.03229Q59.675 253.39166 60.909374 253.39166Q62.14375 253.39166 62.8625 254.07916Q63.58125 254.76666 63.58125 255.78229Q63.58125 256.2979 63.3625 256.7979Q63.159374 257.2823 62.659374 257.8448Q62.175 258.39166 61.05 259.3448Q60.096874 260.14166 59.815624 260.43854Q59.55 260.7198 59.378124 261.00104L63.596874 261.00104ZM65.05 259.76666L66.15938 259.6729Q66.28438 260.4854 66.72188 260.89166Q67.175 261.2979 67.81563 261.2979Q68.56563 261.2979 69.09688 260.7198Q69.62813 260.14166 69.62813 259.20416Q69.62813 258.2979 69.1125 257.7823Q68.6125 257.25104 67.78438 257.25104Q67.28438 257.25104 66.8625 257.4854Q66.45625 257.7198 66.22188 258.07916L65.2375 257.95416L66.06563 253.54791L70.34688 253.54791L70.34688 254.54791L66.90938 254.54791L66.45625 256.8604Q67.22188 256.31354 68.06563 256.31354Q69.19063 256.31354 69.95625 257.0948Q70.7375 257.87604 70.7375 259.1104Q70.7375 260.26666 70.06563 261.12604Q69.2375 262.1573 67.81563 262.1573Q66.64375 262.1573 65.89375 261.50104Q65.15938 260.8448 65.05 259.76666ZM72.05 257.7823Q72.05 256.25104 72.3625 255.32916Q72.675 254.39166 73.28438 253.89166Q73.90938 253.39166 74.84688 253.39166Q75.53438 253.39166 76.05 253.67291Q76.58125 253.95416 76.925 254.48541Q77.26875 255.00104 77.45625 255.75104Q77.64375 256.50104 77.64375 257.7823Q77.64375 259.2979 77.33125 260.2198Q77.03438 261.14166 76.40938 261.6573Q75.8 262.1573 74.84688 262.1573Q73.6125 262.1573 72.89375 261.26666Q72.05 260.20416 72.05 257.7823ZM73.12813 257.7823Q73.12813 259.89166 73.62813 260.5948Q74.12813 261.2979 74.84688 261.2979Q75.58125 261.2979 76.06563 260.5948Q76.56563 259.89166 76.56563 257.7823Q76.56563 255.65729 76.06563 254.96979Q75.58125 254.26666 74.83125 254.26666Q74.1125 254.26666 73.675 254.87604Q73.12813 255.65729 73.12813 257.7823ZM79.05 257.7823Q79.05 256.25104 79.3625 255.32916Q79.675 254.39166 80.28438 253.89166Q80.90938 253.39166 81.84688 253.39166Q82.53438 253.39166 83.05 253.67291Q83.58125 253.95416 83.925 254.48541Q84.26875 255.00104 84.45625 255.75104Q84.64375 256.50104 84.64375 257.7823Q84.64375 259.2979 84.33125 260.2198Q84.03438 261.14166 83.40938 261.6573Q82.8 262.1573 81.84688 262.1573Q80.6125 262.1573 79.89375 261.26666Q79.05 260.20416 79.05 257.7823ZM80.12813 257.7823Q80.12813 259.89166 80.62813 260.5948Q81.12813 261.2979 81.84688 261.2979Q82.58125 261.2979 83.06563 260.5948Q83.56563 259.89166 83.56563 257.7823Q83.56563 255.65729 83.06563 254.96979Q82.58125 254.26666 81.83125 254.26666Q81.1125 254.26666 80.675 254.87604Q80.12813 255.65729 80.12813 257.7823Z" fill-rule="nonzero"/><path fill="#000000" d="M58.05 217.33333L59.159374 217.23958Q59.284374 218.05208 59.721874 218.45833Q60.175 218.86458 60.815624 218.86458Q61.565624 218.86458 62.096874 218.28645Q62.628124 217.70833 62.628124 216.77083Q62.628124 215.86458 62.1125 215.34895Q61.6125 214.8177 60.784374 214.8177Q60.284374 214.8177 59.8625 215.05208Q59.45625 215.28645 59.221874 215.64583L58.2375 215.52083L59.065624 211.11458L63.346874 211.11458L63.346874 212.11458L59.909374 212.11458L59.45625 214.42708Q60.221874 213.8802 61.065624 213.8802Q62.190624 213.8802 62.95625 214.66145Q63.7375 215.4427 63.7375 216.67708Q63.7375 217.83333 63.065624 218.6927Q62.2375 219.72395 60.815624 219.72395Q59.64375 219.72395 58.89375 219.0677Q58.159374 218.41145 58.05 217.33333ZM65.05 215.34895Q65.05 213.8177 65.3625 212.89583Q65.675 211.95833 66.28438 211.45833Q66.90938 210.95833 67.84688 210.95833Q68.53438 210.95833 69.05 211.23958Q69.58125 211.52083 69.925 212.05208Q70.26875 212.5677 70.45625 213.3177Q70.64375 214.0677 70.64375 215.34895Q70.64375 216.86458 70.33125 217.78645Q70.03438 218.70833 69.40938 219.22395Q68.8 219.72395 67.84688 219.72395Q66.6125 219.72395 65.89375 218.83333Q65.05 217.77083 65.05 215.34895ZM66.12813 215.34895Q66.12813 217.45833 66.62813 218.16145Q67.12813 218.86458 67.84688 218.86458Q68.58125 218.86458 69.06563 218.16145Q69.56563 217.45833 69.56563 215.34895Q69.56563 213.22395 69.06563 212.53645Q68.58125 211.83333 67.83125 211.83333Q67.1125 211.83333 66.675 212.4427Q66.12813 213.22395 66.12813 215.34895ZM72.05 215.34895Q72.05 213.8177 72.3625 212.89583Q72.675 211.95833 73.28438 211.45833Q73.90938 210.95833 74.84688 210.95833Q75.53438 210.95833 76.05 211.23958Q76.58125 211.52083 76.925 212.05208Q77.26875 212.5677 77.45625 213.3177Q77.64375 214.0677 77.64375 215.34895Q77.64375 216.86458 77.33125 217.78645Q77.03438 218.70833 76.40938 219.22395Q75.8 219.72395 74.84688 219.72395Q73.6125 219.72395 72.89375 218.83333Q72.05 217.77083 72.05 215.34895ZM73.12813 215.34895Q73.12813 217.45833 73.62813 218.16145Q74.12813 218.86458 74.84688 218.86458Q75.58125 218.86458 76.06563 218.16145Q76.56563 217.45833 76.56563 215.34895Q76.56563 213.22395 76.06563 212.53645Q75.58125 211.83333 74.83125 211.83333Q74.1125 211.83333 73.675 212.4427Q73.12813 213.22395 73.12813 215.34895ZM79.05 215.34895Q79.05 213.8177 79.3625 212.89583Q79.675 211.95833 80.28438 211.45833Q80.90938 210.95833 81.84688 210.95833Q82.53438 210.95833 83.05 211.23958Q83.58125 211.52083 83.925 212.05208Q84.26875 212.5677 84.45625 213.3177Q84.64375 214.0677 84.64375 215.34895Q84.64375 216.86458 84.33125 217.78645Q84.03438 218.70833 83.40938 219.22395Q82.8 219.72395 81.84688 219.72395Q80.6125 219.72395 79.89375 218.83333Q79.05 217.77083 79.05 215.34895ZM80.12813 215.34895Q80.12813 217.45833 80.62813 218.16145Q81.12813 218.86458 81.84688 218.86458Q82.58125 218.86458 83.06563 218.16145Q83.56563 217.45833 83.56563 215.34895Q83.56563 213.22395 83.06563 212.53645Q82.58125 211.83333 81.83125 211.83333Q81.1125 211.83333 80.675 212.4427Q80.12813 213.22395 80.12813 215.34895Z" fill-rule="nonzero"/><path fill="#000000" d="M58.1125 169.68124L58.1125 168.66562L63.675 168.66562L63.675 169.49374Q62.8625 170.36874 62.05 171.82187Q61.253124 173.25937 60.815624 174.79062Q60.4875 175.86874 60.409374 177.15L59.315624 177.15Q59.33125 176.13437 59.70625 174.69687Q60.096874 173.25937 60.8 171.93124Q61.51875 170.60312 62.33125 169.68124L58.1125 169.68124ZM65.05 174.9L66.15938 174.80624Q66.28438 175.61874 66.72188 176.025Q67.175 176.43124 67.81563 176.43124Q68.56563 176.43124 69.09688 175.85312Q69.62813 175.275 69.62813 174.3375Q69.62813 173.43124 69.1125 172.91562Q68.6125 172.38437 67.78438 172.38437Q67.28438 172.38437 66.8625 172.61874Q66.45625 172.85312 66.22188 173.2125L65.2375 173.0875L66.06563 168.68124L70.34688 168.68124L70.34688 169.68124L66.90938 169.68124L66.45625 171.99374Q67.22188 171.44687 68.06563 171.44687Q69.19063 171.44687 69.95625 172.22812Q70.7375 173.00937 70.7375 174.24374Q70.7375 175.4 70.06563 176.25937Q69.2375 177.29062 67.81563 177.29062Q66.64375 177.29062 65.89375 176.63437Q65.15938 175.97812 65.05 174.9ZM72.05 172.91562Q72.05 171.38437 72.3625 170.4625Q72.675 169.525 73.28438 169.025Q73.90938 168.525 74.84688 168.525Q75.53438 168.525 76.05 168.80624Q76.58125 169.0875 76.925 169.61874Q77.26875 170.13437 77.45625 170.88437Q77.64375 171.63437 77.64375 172.91562Q77.64375 174.43124 77.33125 175.35312Q77.03438 176.275 76.40938 176.79062Q75.8 177.29062 74.84688 177.29062Q73.6125 177.29062 72.89375 176.4Q72.05 175.3375 72.05 172.91562ZM73.12813 172.91562Q73.12813 175.025 73.62813 175.72812Q74.12813 176.43124 74.84688 176.43124Q75.58125 176.43124 76.06563 175.72812Q76.56563 175.025 76.56563 172.91562Q76.56563 170.79062 76.06563 170.10312Q75.58125 169.4 74.83125 169.4Q74.1125 169.4 73.675 170.00937Q73.12813 170.79062 73.12813 172.91562ZM79.05 172.91562Q79.05 171.38437 79.3625 170.4625Q79.675 169.525 80.28438 169.025Q80.90938 168.525 81.84688 168.525Q82.53438 168.525 83.05 168.80624Q83.58125 169.0875 83.925 169.61874Q84.26875 170.13437 84.45625 170.88437Q84.64375 171.63437 84.64375 172.91562Q84.64375 174.43124 84.33125 175.35312Q84.03438 176.275 83.40938 176.79062Q82.8 177.29062 81.84688 177.29062Q80.6125 177.29062 79.89375 176.4Q79.05 175.3375 79.05 172.91562ZM80.12813 172.91562Q80.12813 175.025 80.62813 175.72812Q81.12813 176.43124 81.84688 176.43124Q82.58125 176.43124 83.06563 175.72812Q83.56563 175.025 83.56563 172.91562Q83.56563 170.79062 83.06563 170.10312Q82.58125 169.4 81.83125 169.4Q81.1125 169.4 80.675 170.00937Q80.12813 170.79062 80.12813 172.91562Z" fill-rule="nonzero"/><path fill="#000000" d="M55.01875 134.71666L53.971874 134.71666L53.971874 127.99791Q53.58125 128.35728 52.95625 128.73228Q52.346874 129.09166 51.8625 129.26353L51.8625 128.24791Q52.7375 127.826035 53.39375 127.24791Q54.065624 126.65416 54.346874 126.09166L55.01875 126.09166L55.01875 134.71666ZM58.05 130.48228Q58.05 128.95103 58.3625 128.02916Q58.675 127.09166 59.284374 126.59166Q59.909374 126.09166 60.846874 126.09166Q61.534374 126.09166 62.05 126.37291Q62.58125 126.65416 62.925 127.18541Q63.26875 127.701035 63.45625 128.45103Q63.64375 129.20103 63.64375 130.48228Q63.64375 131.99791 63.33125 132.91978Q63.034374 133.84166 62.409374 134.35728Q61.8 134.85728 60.846874 134.85728Q59.6125 134.85728 58.89375 133.96666Q58.05 132.90416 58.05 130.48228ZM59.128124 130.48228Q59.128124 132.59166 59.628124 133.29478Q60.128124 133.99791 60.846874 133.99791Q61.58125 133.99791 62.065624 133.29478Q62.565624 132.59166 62.565624 130.48228Q62.565624 128.35728 62.065624 127.669785Q61.58125 126.96666 60.83125 126.96666Q60.1125 126.96666 59.675 127.576035Q59.128124 128.35728 59.128124 130.48228ZM65.05 130.48228Q65.05 128.95103 65.3625 128.02916Q65.675 127.09166 66.28438 126.59166Q66.90938 126.09166 67.84688 126.09166Q68.53438 126.09166 69.05 126.37291Q69.58125 126.65416 69.925 127.18541Q70.26875 127.701035 70.45625 128.45103Q70.64375 129.20103 70.64375 130.48228Q70.64375 131.99791 70.33125 132.91978Q70.03438 133.84166 69.40938 134.35728Q68.8 134.85728 67.84688 134.85728Q66.6125 134.85728 65.89375 133.96666Q65.05 132.90416 65.05 130.48228ZM66.12813 130.48228Q66.12813 132.59166 66.62813 133.29478Q67.12813 133.99791 67.84688 133.99791Q68.58125 133.99791 69.06563 133.29478Q69.56563 132.59166 69.56563 130.48228Q69.56563 128.35728 69.06563 127.669785Q68.58125 126.96666 67.83125 126.96666Q67.1125 126.96666 66.675 127.576035Q66.12813 128.35728 66.12813 130.48228ZM72.05 130.48228Q72.05 128.95103 72.3625 128.02916Q72.675 127.09166 73.28438 126.59166Q73.90938 126.09166 74.84688 126.09166Q75.53438 126.09166 76.05 126.37291Q76.58125 126.65416 76.925 127.18541Q77.26875 127.701035 77.45625 128.45103Q77.64375 129.20103 77.64375 130.48228Q77.64375 131.99791 77.33125 132.91978Q77.03438 133.84166 76.40938 134.35728Q75.8 134.85728 74.84688 134.85728Q73.6125 134.85728 72.89375 133.96666Q72.05 132.90416 72.05 130.48228ZM73.12813 130.48228Q73.12813 132.59166 73.62813 133.29478Q74.12813 133.99791 74.84688 133.99791Q75.58125 133.99791 76.06563 133.29478Q76.56563 132.59166 76.56563 130.48228Q76.56563 128.35728 76.06563 127.669785Q75.58125 126.96666 74.83125 126.96666Q74.1125 126.96666 73.675 127.576035Q73.12813 128.35728 73.12813 130.48228ZM79.05 130.48228Q79.05 128.95103 79.3625 128.02916Q79.675 127.09166 80.28438 126.59166Q80.90938 126.09166 81.84688 126.09166Q82.53438 126.09166 83.05 126.37291Q83.58125 126.65416 83.925 127.18541Q84.26875 127.701035 84.45625 128.45103Q84.64375 129.20103 84.64375 130.48228Q84.64375 131.99791 84.33125 132.91978Q84.03438 133.84166 83.40938 134.35728Q82.8 134.85728 81.84688 134.85728Q80.6125 134.85728 79.89375 133.96666Q79.05 132.90416 79.05 130.48228ZM80.12813 130.48228Q80.12813 132.59166 80.62813 133.29478Q81.12813 133.99791 81.84688 133.99791Q82.58125 133.99791 83.06563 133.29478Q83.56563 132.59166 83.56563 130.48228Q83.56563 128.35728 83.06563 127.669785Q82.58125 126.96666 81.83125 126.96666Q81.1125 126.96666 80.675 127.576035Q80.12813 128.35728 80.12813 130.48228Z" fill-rule="nonzero"/><path fill="#000000" d="M55.01875 92.28333L53.971874 92.28333L53.971874 85.56458Q53.58125 85.92396 52.95625 86.29896Q52.346874 86.65833 51.8625 86.83021L51.8625 85.81458Q52.7375 85.39271 53.39375 84.81458Q54.065624 84.22083 54.346874 83.65833L55.01875 83.65833L55.01875 92.28333ZM63.596874 91.26771L63.596874 92.28333L57.909374 92.28333Q57.909374 91.90833 58.034374 91.54896Q58.253124 90.97083 58.721874 90.40833Q59.20625 89.84583 60.1125 89.11146Q61.51875 87.95521 62.003124 87.28333Q62.503124 86.61146 62.503124 86.01771Q62.503124 85.39271 62.05 84.97083Q61.596874 84.53333 60.878124 84.53333Q60.1125 84.53333 59.659374 84.98646Q59.20625 85.43958 59.190624 86.25208L58.1125 86.14271Q58.221874 84.92396 58.940624 84.29896Q59.675 83.65833 60.909374 83.65833Q62.14375 83.65833 62.8625 84.34583Q63.58125 85.03333 63.58125 86.04896Q63.58125 86.56458 63.3625 87.06458Q63.159374 87.54896 62.659374 88.11146Q62.175 88.65833 61.05 89.61146Q60.096874 90.40833 59.815624 90.70521Q59.55 90.98646 59.378124 91.26771L63.596874 91.26771ZM65.05 90.03333L66.15938 89.93958Q66.28438 90.75208 66.72188 91.15833Q67.175 91.56458 67.81563 91.56458Q68.56563 91.56458 69.09688 90.98646Q69.62813 90.40833 69.62813 89.47083Q69.62813 88.56458 69.1125 88.04896Q68.6125 87.51771 67.78438 87.51771Q67.28438 87.51771 66.8625 87.75208Q66.45625 87.98646 66.22188 88.34583L65.2375 88.22083L66.06563 83.81458L70.34688 83.81458L70.34688 84.81458L66.90938 84.81458L66.45625 87.12708Q67.22188 86.58021 68.06563 86.58021Q69.19063 86.58021 69.95625 87.36146Q70.7375 88.14271 70.7375 89.37708Q70.7375 90.53333 70.06563 91.39271Q69.2375 92.42396 67.81563 92.42396Q66.64375 92.42396 65.89375 91.76771Q65.15938 91.11146 65.05 90.03333ZM72.05 88.04896Q72.05 86.51771 72.3625 85.59583Q72.675 84.65833 73.28438 84.15833Q73.90938 83.65833 74.84688 83.65833Q75.53438 83.65833 76.05 83.93958Q76.58125 84.22083 76.925 84.75208Q77.26875 85.26771 77.45625 86.01771Q77.64375 86.76771 77.64375 88.04896Q77.64375 89.56458 77.33125 90.48646Q77.03438 91.40833 76.40938 91.92396Q75.8 92.42396 74.84688 92.42396Q73.6125 92.42396 72.89375 91.53333Q72.05 90.47083 72.05 88.04896ZM73.12813 88.04896Q73.12813 90.15833 73.62813 90.86146Q74.12813 91.56458 74.84688 91.56458Q75.58125 91.56458 76.06563 90.86146Q76.56563 90.15833 76.56563 88.04896Q76.56563 85.92396 76.06563 85.23646Q75.58125 84.53333 74.83125 84.53333Q74.1125 84.53333 73.675 85.14271Q73.12813 85.92396 73.12813 88.04896ZM79.05 88.04896Q79.05 86.51771 79.3625 85.59583Q79.675 84.65833 80.28438 84.15833Q80.90938 83.65833 81.84688 83.65833Q82.53438 83.65833 83.05 83.93958Q83.58125 84.22083 83.925 84.75208Q84.26875 85.26771 84.45625 86.01771Q84.64375 86.76771 84.64375 88.04896Q84.64375 89.56458 84.33125 90.48646Q84.03438 91.40833 83.40938 91.92396Q82.8 92.42396 81.84688 92.42396Q80.6125 92.42396 79.89375 91.53333Q79.05 90.47083 79.05 88.04896ZM80.12813 88.04896Q80.12813 90.15833 80.62813 90.86146Q81.12813 91.56458 81.84688 91.56458Q82.58125 91.56458 83.06563 90.86146Q83.56563 90.15833 83.56563 88.04896Q83.56563 85.92396 83.06563 85.23646Q82.58125 84.53333 81.83125 84.53333Q81.1125 84.53333 80.675 85.14271Q80.12813 85.92396 80.12813 88.04896Z" fill-rule="nonzero"/><path fill="#000000" d="M148.53021 316.4344L148.53021 317.45L142.84271 317.45Q142.84271 317.075 142.96771 316.71564Q143.18646 316.1375 143.65521 315.575Q144.13959 315.0125 145.04584 314.27814Q146.45209 313.1219 146.93646 312.45Q147.43646 311.77814 147.43646 311.1844Q147.43646 310.5594 146.98334 310.1375Q146.53021 309.7 145.81146 309.7Q145.04584 309.7 144.59271 310.15314Q144.13959 310.60626 144.12396 311.41876L143.04584 311.3094Q143.15521 310.09064 143.87396 309.46564Q144.60834 308.825 145.84271 308.825Q147.07709 308.825 147.79584 309.5125Q148.51459 310.2 148.51459 311.21564Q148.51459 311.73126 148.29584 312.23126Q148.09271 312.71564 147.59271 313.27814Q147.10834 313.825 145.98334 314.77814Q145.03021 315.575 144.74896 315.8719Q144.48334 316.15314 144.31146 316.4344L148.53021 316.4344Z" fill-rule="nonzero"/><path fill="#000000" d="M255.225 317.45L255.225 315.3875L251.50626 315.3875L251.50626 314.41876L255.42813 308.85626L256.2875 308.85626L256.2875 314.41876L257.44376 314.41876L257.44376 315.3875L256.2875 315.3875L256.2875 317.45L255.225 317.45ZM255.225 314.41876L255.225 310.5594L252.5375 314.41876L255.225 314.41876Z" fill-rule="nonzero"/><path fill="#000000" d="M366.18542 310.96564L365.13855 311.04376Q364.99792 310.41876 364.74792 310.1375Q364.31042 309.6844 363.68542 309.6844Q363.18542 309.6844 362.7948 309.96564Q362.31042 310.34064 362.01355 311.04376Q361.7323 311.73126 361.71667 313.0125Q362.09167 312.4344 362.63855 312.15314Q363.20105 311.8719 363.81042 311.8719Q364.8573 311.8719 365.59167 312.65314Q366.34167 313.4344 366.34167 314.65314Q366.34167 315.46564 365.9823 316.16876Q365.63855 316.85626 365.02917 317.23126Q364.4198 317.59064 363.65417 317.59064Q362.32605 317.59064 361.49792 316.6219Q360.6698 315.65314 360.6698 313.4344Q360.6698 310.9344 361.59167 309.8094Q362.38855 308.825 363.74792 308.825Q364.76355 308.825 365.40417 309.40314Q366.06042 309.96564 366.18542 310.96564ZM361.88855 314.66876Q361.88855 315.21564 362.1073 315.71564Q362.34167 316.2 362.74792 316.46564Q363.1698 316.73126 363.63855 316.73126Q364.2948 316.73126 364.77917 316.2Q365.26355 315.65314 365.26355 314.73126Q365.26355 313.84064 364.77917 313.325Q364.31042 312.8094 363.59167 312.8094Q362.87292 312.8094 362.37292 313.325Q361.88855 313.84064 361.88855 314.66876Z" fill-rule="nonzero"/><path fill="#000000" d="M471.20834 312.79376Q470.5521 312.54376 470.22397 312.10626Q469.91147 311.65314 469.91147 311.04376Q469.91147 310.10626 470.58334 309.46564Q471.27084 308.825 472.38022 308.825Q473.50522 308.825 474.19272 309.48126Q474.88022 310.1375 474.88022 311.075Q474.88022 311.66876 474.56772 312.10626Q474.25522 312.54376 473.6146 312.79376Q474.41147 313.04376 474.81772 313.6219Q475.22397 314.2 475.22397 314.9969Q475.22397 316.09064 474.44272 316.84064Q473.6771 317.59064 472.39584 317.59064Q471.13022 317.59064 470.34897 316.84064Q469.56772 316.09064 469.56772 314.96564Q469.56772 314.1219 469.9896 313.5594Q470.4271 312.9969 471.20834 312.79376ZM470.9896 310.9969Q470.9896 311.60626 471.38022 311.9969Q471.78647 312.3875 472.41147 312.3875Q473.02084 312.3875 473.41147 312.0125Q473.8021 311.6219 473.8021 311.0594Q473.8021 310.48126 473.39584 310.09064Q472.9896 309.6844 472.39584 309.6844Q471.78647 309.6844 471.38022 310.075Q470.9896 310.46564 470.9896 310.9969ZM470.66147 314.96564Q470.66147 315.41876 470.8646 315.84064Q471.08334 316.2625 471.50522 316.4969Q471.9271 316.73126 472.41147 316.73126Q473.16147 316.73126 473.64584 316.2469Q474.14584 315.7625 474.14584 315.0125Q474.14584 314.2469 473.64584 313.7469Q473.14584 313.2469 472.38022 313.2469Q471.63022 313.2469 471.14584 313.7469Q470.66147 314.23126 470.66147 314.96564Z" fill-rule="nonzero"/><path fill="#000000" d="M578.91876 317.45L577.8719 317.45L577.8719 310.73126Q577.48126 311.09064 576.85626 311.46564Q576.2469 311.825 575.7625 311.9969L575.7625 310.98126Q576.6375 310.5594 577.29376 309.98126Q577.96564 309.3875 578.2469 308.825L578.91876 308.825L578.91876 317.45ZM581.95 313.21564Q581.95 311.6844 582.2625 310.7625Q582.575 309.825 583.1844 309.325Q583.8094 308.825 584.7469 308.825Q585.4344 308.825 585.95 309.10626Q586.48126 309.3875 586.825 309.91876Q587.16876 310.4344 587.35626 311.1844Q587.54376 311.9344 587.54376 313.21564Q587.54376 314.73126 587.23126 315.65314Q586.9344 316.575 586.3094 317.09064Q585.7 317.59064 584.7469 317.59064Q583.5125 317.59064 582.79376 316.7Q581.95 315.6375 581.95 313.21564ZM583.02814 313.21564Q583.02814 315.325 583.52814 316.02814Q584.02814 316.73126 584.7469 316.73126Q585.48126 316.73126 585.96564 316.02814Q586.46564 315.325 586.46564 313.21564Q586.46564 311.09064 585.96564 310.40314Q585.48126 309.7 584.73126 309.7Q584.0125 309.7 583.575 310.3094Q583.02814 311.09064 583.02814 313.21564Z" fill-rule="nonzero"/><path stroke="#4285f4" stroke-width="4.0" stroke-linecap="butt" d="M200.0 61.916668L212.0 61.916668" fill-rule="nonzero"/><path fill="#1a1a1a" d="M224.46875 65.916664L223.42188 65.916664L223.42188 59.197914Q223.03125 59.55729 222.40625 59.93229Q221.79688 60.291664 221.3125 60.46354L221.3125 59.447914Q222.1875 59.02604 222.84375 58.447914Q223.51562 57.854164 223.79688 57.291664L224.46875 57.291664L224.46875 65.916664ZM230.98438 65.916664L230.98438 57.322914L236.78125 57.322914L236.78125 58.33854L232.125 58.33854L232.125 60.99479L236.15625 60.99479L236.15625 62.010414L232.125 62.010414L232.125 65.916664L230.98438 65.916664ZM237.76562 65.916664L237.76562 57.322914L238.82812 57.322914L238.82812 65.916664L237.76562 65.916664ZM240.40625 62.80729Q240.40625 61.072914 241.35938 60.24479Q242.15625 59.55729 243.3125 59.55729Q244.59375 59.55729 245.40625 60.40104Q246.23438 61.229164 246.23438 62.71354Q246.23438 63.916664 245.875 64.604164Q245.51562 65.291664 244.8125 65.68229Q244.125 66.05729 243.3125 66.05729Q242.01562 66.05729 241.20312 65.229164Q240.40625 64.385414 240.40625 62.80729ZM241.48438 62.80729Q241.48438 63.99479 242.0 64.58854Q242.53125 65.18229 243.3125 65.18229Q244.10938 65.18229 244.625 64.58854Q245.14062 63.99479 245.14062 62.77604Q245.14062 61.61979 244.60938 61.02604Q244.09375 60.43229 243.3125 60.43229Q242.53125 60.43229 242.0 61.02604Q241.48438 61.604164 241.48438 62.80729ZM248.9375 65.916664L247.03125 59.697914L248.125 59.697914L249.10938 63.291664L249.48438 64.61979Q249.51562 64.52604 249.8125 63.33854L250.79688 59.697914L251.875 59.697914L252.8125 63.30729L253.125 64.49479L253.48438 63.291664L254.54688 59.697914L255.57812 59.697914L253.625 65.916664L252.53125 65.916664L251.54688 62.18229L251.29688 61.135414L250.04688 65.916664L248.9375 65.916664Z" fill-rule="nonzero"/><path stroke="#ea4335" stroke-width="4.0" stroke-linecap="butt" d="M272.0 61.916668L284.0 61.916668" fill-rule="nonzero"/><path fill="#1a1a1a" d="M298.04688 64.90104L298.04688 65.916664L292.35938 65.916664Q292.35938 65.541664 292.48438 65.18229Q292.70312 64.604164 293.17188 64.041664Q293.65625 63.479164 294.5625 62.74479Q295.96875 61.58854 296.45312 60.916664Q296.95312 60.24479 296.95312 59.65104Q296.95312 59.02604 296.5 58.604164Q296.04688 58.166664 295.32812 58.166664Q294.5625 58.166664 294.10938 58.61979Q293.65625 59.072914 293.64062 59.885414L292.5625 59.77604Q292.67188 58.55729 293.39062 57.93229Q294.125 57.291664 295.35938 57.291664Q296.59375 57.291664 297.3125 57.979164Q298.03125 58.666664 298.03125 59.68229Q298.03125 60.197914 297.8125 60.697914Q297.60938 61.18229 297.10938 61.74479Q296.625 62.291664 295.5 63.24479Q294.54688 64.041664 294.26562 64.33854Q294.0 64.61979 293.82812 64.90104L298.04688 64.90104ZM302.98438 65.916664L302.98438 57.322914L308.78125 57.322914L308.78125 58.33854L304.125 58.33854L304.125 60.99479L308.15625 60.99479L308.15625 62.010414L304.125 62.010414L304.125 65.916664L302.98438 65.916664ZM309.76562 65.916664L309.76562 57.322914L310.82812 57.322914L310.82812 65.916664L309.76562 65.916664ZM312.40625 62.80729Q312.40625 61.072914 313.35938 60.24479Q314.15625 59.55729 315.3125 59.55729Q316.59375 59.55729 317.40625 60.40104Q318.23438 61.229164 318.23438 62.71354Q318.23438 63.916664 317.875 64.604164Q317.51562 65.291664 316.8125 65.68229Q316.125 66.05729 315.3125 66.05729Q314.01562 66.05729 313.20312 65.229164Q312.40625 64.385414 312.40625 62.80729ZM313.48438 62.80729Q313.48438 63.99479 314.0 64.58854Q314.53125 65.18229 315.3125 65.18229Q316.10938 65.18229 316.625 64.58854Q317.14062 63.99479 317.14062 62.77604Q317.14062 61.61979 316.60938 61.02604Q316.09375 60.43229 315.3125 60.43229Q314.53125 60.43229 314.0 61.02604Q313.48438 61.604164 313.48438 62.80729ZM320.9375 65.916664L319.03125 59.697914L320.125 59.697914L321.10938 63.291664L321.48438 64.61979Q321.51562 64.52604 321.8125 63.33854L322.79688 59.697914L323.875 59.697914L324.8125 63.30729L325.125 64.49479L325.48438 63.291664L326.54688 59.697914L327.57812 59.697914L325.625 65.916664L324.53125 65.916664L323.54688 62.18229L323.29688 61.135414L322.04688 65.916664L320.9375 65.916664Z" fill-rule="nonzero"/><path stroke="#fbbc04" stroke-width="4.0" stroke-linecap="butt" d="M344.0 61.916668L356.0 61.916668" fill-rule="nonzero"/><path fill="#1a1a1a" d="M364.5 63.65104L365.5625 63.510414Q365.73438 64.40104 366.17188 64.80729Q366.60938 65.197914 367.23438 65.197914Q367.98438 65.197914 368.5 64.68229Q369.01562 64.166664 369.01562 63.40104Q369.01562 62.68229 368.53125 62.21354Q368.0625 61.729164 367.32812 61.729164Q367.03125 61.729164 366.57812 61.854164L366.70312 60.916664Q366.8125 60.93229 366.875 60.93229Q367.54688 60.93229 368.07812 60.58854Q368.625 60.229164 368.625 59.49479Q368.625 58.916664 368.23438 58.541664Q367.84375 58.15104 367.21875 58.15104Q366.60938 58.15104 366.1875 58.541664Q365.78125 58.93229 365.67188 59.697914L364.60938 59.510414Q364.79688 58.46354 365.48438 57.885414Q366.17188 57.291664 367.1875 57.291664Q367.89062 57.291664 368.48438 57.604164Q369.07812 57.90104 369.39062 58.416664Q369.70312 58.93229 369.70312 59.52604Q369.70312 60.072914 369.40625 60.541664Q369.10938 60.99479 368.53125 61.260414Q369.28125 61.43229 369.70312 61.99479Q370.125 62.541664 370.125 63.385414Q370.125 64.510414 369.29688 65.291664Q368.48438 66.072914 367.23438 66.072914Q366.10938 66.072914 365.35938 65.40104Q364.60938 64.71354 364.5 63.65104ZM374.98438 65.916664L374.98438 57.322914L380.78125 57.322914L380.78125 58.33854L376.125 58.33854L376.125 60.99479L380.15625 60.99479L380.15625 62.010414L376.125 62.010414L376.125 65.916664L374.98438 65.916664ZM381.76562 65.916664L381.76562 57.322914L382.82812 57.322914L382.82812 65.916664L381.76562 65.916664ZM384.40625 62.80729Q384.40625 61.072914 385.35938 60.24479Q386.15625 59.55729 387.3125 59.55729Q388.59375 59.55729 389.40625 60.40104Q390.23438 61.229164 390.23438 62.71354Q390.23438 63.916664 389.875 64.604164Q389.51562 65.291664 388.8125 65.68229Q388.125 66.05729 387.3125 66.05729Q386.01562 66.05729 385.20312 65.229164Q384.40625 64.385414 384.40625 62.80729ZM385.48438 62.80729Q385.48438 63.99479 386.0 64.58854Q386.53125 65.18229 387.3125 65.18229Q388.10938 65.18229 388.625 64.58854Q389.14062 63.99479 389.14062 62.77604Q389.14062 61.61979 388.60938 61.02604Q388.09375 60.43229 387.3125 60.43229Q386.53125 60.43229 386.0 61.02604Q385.48438 61.604164 385.48438 62.80729ZM392.9375 65.916664L391.03125 59.697914L392.125 59.697914L393.10938 63.291664L393.48438 64.61979Q393.51562 64.52604 393.8125 63.33854L394.79688 59.697914L395.875 59.697914L396.8125 63.30729L397.125 64.49479L397.48438 63.291664L398.54688 59.697914L399.57812 59.697914L397.625 65.916664L396.53125 65.916664L395.54688 62.18229L395.29688 61.135414L394.04688 65.916664L392.9375 65.916664Z" fill-rule="nonzero"/><path fill="#757575" d="M20.034374 37.55L20.034374 23.2375L22.89375 23.2375L26.26875 33.3625Q26.7375 34.784374 26.95625 35.4875Q27.20625 34.70625 27.721874 33.190624L31.14375 23.2375L33.690624 23.2375L33.690624 37.55L31.878124 37.55L31.878124 25.565624L27.70625 37.55L26.003124 37.55L21.8625 25.3625L21.8625 37.55L20.034374 37.55ZM37.096874 37.55L37.096874 23.2375L42.4875 23.2375Q43.925 23.2375 44.675 23.3625Q45.721874 23.55 46.440624 24.05Q47.159374 24.534374 47.58125 25.425Q48.01875 26.315624 48.01875 27.378124Q48.01875 29.20625 46.846874 30.471874Q45.690624 31.721874 42.659374 31.721874L38.9875 31.721874L38.9875 37.55L37.096874 37.55ZM38.9875 30.034374L42.690624 30.034374Q44.51875 30.034374 45.284374 29.3625Q46.065624 28.675 46.065624 27.425Q46.065624 26.534374 45.6125 25.89375Q45.159374 25.253124 44.425 25.05Q43.940624 24.925 42.64375 24.925L38.9875 24.925L38.9875 30.034374ZM53.7375 37.55L53.7375 24.925L49.01875 24.925L49.01875 23.2375L60.3625 23.2375L60.3625 24.925L55.628124 24.925L55.628124 37.55L53.7375 37.55ZM72.31563 32.534374L74.20625 33.003124Q73.6125 35.346874 72.06563 36.58125Q70.51875 37.8 68.26875 37.8Q65.95625 37.8 64.50313 36.8625Q63.065624 35.909374 62.3 34.128124Q61.55 32.33125 61.55 30.284374Q61.55 28.05 62.39375 26.39375Q63.253124 24.721874 64.83125 23.8625Q66.40938 22.9875 68.3 22.9875Q70.45625 22.9875 71.90938 24.08125Q73.37813 25.175 73.95625 27.159374L72.09688 27.596874Q71.59688 26.034374 70.64375 25.33125Q69.70625 24.6125 68.26875 24.6125Q66.6125 24.6125 65.50313 25.409374Q64.39375 26.190624 63.940624 27.534374Q63.503124 28.8625 63.503124 30.26875Q63.503124 32.096874 64.03438 33.471874Q64.56563 34.83125 65.69063 35.503124Q66.81563 36.175 68.1125 36.175Q69.70625 36.175 70.81563 35.253124Q71.925 34.33125 72.31563 32.534374ZM76.09688 37.55L76.09688 23.2375L81.4875 23.2375Q82.925 23.2375 83.675 23.3625Q84.72188 23.55 85.44063 24.05Q86.15938 24.534374 86.58125 25.425Q87.01875 26.315624 87.01875 27.378124Q87.01875 29.20625 85.84688 30.471874Q84.69063 31.721874 81.65938 31.721874L77.9875 31.721874L77.9875 37.55L76.09688 37.55ZM77.9875 30.034374L81.69063 30.034374Q83.51875 30.034374 84.28438 29.3625Q85.06563 28.675 85.06563 27.425Q85.06563 26.534374 84.6125 25.89375Q84.15938 25.253124 83.425 25.05Q82.94063 24.925 81.64375 24.925L77.9875 24.925L77.9875 30.034374ZM95.09688 37.55L95.09688 23.2375L100.4875 23.2375Q101.925 23.2375 102.675 23.3625Q103.72188 23.55 104.44063 24.05Q105.15938 24.534374 105.58125 25.425Q106.01875 26.315624 106.01875 27.378124Q106.01875 29.20625 104.84688 30.471874Q103.69063 31.721874 100.65938 31.721874L96.9875 31.721874L96.9875 37.55L95.09688 37.55ZM96.9875 30.034374L100.69063 30.034374Q102.51875 30.034374 103.28438 29.3625Q104.06563 28.675 104.06563 27.425Q104.06563 26.534374 103.6125 25.89375Q103.15938 25.253124 102.425 25.05Q101.94063 24.925 100.64375 24.925L96.9875 24.925L96.9875 30.034374ZM107.84688 37.55L107.84688 27.175L109.425 27.175L109.425 28.753124Q110.03438 27.64375 110.55 27.3Q111.06563 26.940624 111.675 26.940624Q112.56563 26.940624 113.4875 27.503124L112.87813 29.14375Q112.2375 28.753124 111.59688 28.753124Q111.01875 28.753124 110.55 29.1125Q110.09688 29.45625 109.89375 30.065624Q109.6125 31.003124 109.6125 32.1125L109.6125 37.55L107.84688 37.55ZM114.22188 32.3625Q114.22188 29.4875 115.81563 28.096874Q117.15938 26.940624 119.08125 26.940624Q121.22188 26.940624 122.56563 28.346874Q123.925 29.753124 123.925 32.221874Q123.925 34.221874 123.33125 35.378124Q122.7375 36.51875 121.58125 37.159374Q120.44063 37.784374 119.08125 37.784374Q116.89375 37.784374 115.55 36.39375Q114.22188 34.9875 114.22188 32.3625ZM116.01875 32.3625Q116.01875 34.3625 116.87813 35.346874Q117.75313 36.33125 119.08125 36.33125Q120.39375 36.33125 121.25313 35.346874Q122.12813 34.346874 122.12813 32.3Q122.12813 30.378124 121.25313 29.39375Q120.37813 28.39375 119.08125 28.39375Q117.75313 28.39375 116.87813 29.39375Q116.01875 30.378124 116.01875 32.3625ZM126.28438 37.55L126.28438 28.55L124.7375 28.55L124.7375 27.175L126.28438 27.175L126.28438 26.08125Q126.28438 25.034374 126.47188 24.51875Q126.72188 23.83125 127.3625 23.409374Q128.00313 22.9875 129.15938 22.9875Q129.90938 22.9875 130.8 23.159374L130.53438 24.690624Q129.9875 24.596874 129.50313 24.596874Q128.70625 24.596874 128.3625 24.940624Q128.03438 25.284374 128.03438 26.221874L128.03438 27.175L130.06563 27.175L130.06563 28.55L128.03438 28.55L128.03438 37.55L126.28438 37.55ZM131.87813 25.253124L131.87813 23.2375L133.64375 23.2375L133.64375 25.253124L131.87813 25.253124ZM131.87813 37.55L131.87813 27.175L133.64375 27.175L133.64375 37.55L131.87813 37.55ZM135.83125 37.55L135.83125 23.2375L137.58125 23.2375L137.58125 37.55L135.83125 37.55ZM139.87813 25.253124L139.87813 23.2375L141.64375 23.2375L141.64375 25.253124L139.87813 25.253124ZM139.87813 37.55L139.87813 27.175L141.64375 27.175L141.64375 37.55L139.87813 37.55ZM143.8625 37.55L143.8625 27.175L145.45625 27.175L145.45625 28.659374Q146.59688 26.940624 148.75313 26.940624Q149.69063 26.940624 150.47188 27.284374Q151.26875 27.6125 151.65938 28.159374Q152.05 28.70625 152.20625 29.45625Q152.3 29.95625 152.3 31.175L152.3 37.55L150.53438 37.55L150.53438 31.2375Q150.53438 30.159374 150.33125 29.628124Q150.12813 29.096874 149.59688 28.784374Q149.08125 28.471874 148.37813 28.471874Q147.25313 28.471874 146.44063 29.190624Q145.62813 29.89375 145.62813 31.878124L145.62813 37.55L143.8625 37.55ZM153.55 38.409374L155.25313 38.659374Q155.3625 39.45625 155.84688 39.815624Q156.50313 40.3 157.64375 40.3Q158.8625 40.3 159.51875 39.815624Q160.19063 39.33125 160.425 38.45625Q160.56563 37.909374 160.55 36.190624Q159.39375 37.55 157.675 37.55Q155.53438 37.55 154.3625 36.003124Q153.19063 34.45625 153.19063 32.3Q153.19063 30.815624 153.72188 29.565624Q154.26875 28.315624 155.28438 27.628124Q156.31563 26.940624 157.69063 26.940624Q159.51875 26.940624 160.72188 28.425L160.72188 27.175L162.33125 27.175L162.33125 36.14375Q162.33125 38.565624 161.83125 39.565624Q161.34688 40.58125 160.26875 41.159374Q159.20625 41.753124 157.64375 41.753124Q155.8 41.753124 154.64375 40.925Q153.50313 40.096874 153.55 38.409374ZM155.00313 32.175Q155.00313 34.221874 155.81563 35.159374Q156.62813 36.096874 157.84688 36.096874Q159.05 36.096874 159.8625 35.159374Q160.69063 34.221874 160.69063 32.2375Q160.69063 30.33125 159.84688 29.3625Q159.00313 28.39375 157.81563 28.39375Q156.64375 28.39375 155.81563 29.346874Q155.00313 30.3 155.00313 32.175Z" fill-rule="nonzero"/></svg>